<svg xmlns="http://www.w3.org/2000/svg" viewBox="0 0 512 512" width="512" height="512"><path d="M432 0H80C35.817 0 0 35.817 0 80v256c0 44.183 35.817 80 80 80h313.44l91.2 91.36A15.999 15.999 0 0 0 496 512c8.837 0 16-7.163 16-16V80c0-44.183-35.817-80-80-80zm48 457.44l-68.64-68.8A15.997 15.997 0 0 0 400 384H80c-26.51 0-48-21.49-48-48V80c0-26.51 21.49-48 48-48h352c26.51 0 48 21.49 48 48v377.44z" data-original="#000000" class="active-path" data-old_color="#000000" fill="#133469"/><circle cx="256" cy="208" r="32" data-original="#000000" class="active-path" data-old_color="#000000" fill="#133469"/><circle cx="368" cy="208" r="32" data-original="#000000" class="active-path" data-old_color="#000000" fill="#133469"/><circle cx="144" cy="208" r="32" data-original="#000000" class="active-path" data-old_color="#000000" fill="#133469"/></svg>