<svg id="Capa_1" xmlns="http://www.w3.org/2000/svg" viewBox="0 0 512 512"><style>.st0{fill:#133469;stroke:#133469;stroke-width:10;stroke-miterlimit:10}</style><path class="st0" d="M447.2 67.9H404V24.7C404 11.1 392.9 0 379.4 0H64.8C51.2 0 40.1 11.1 40.1 24.7v394.8c0 13.6 11.1 24.7 24.7 24.7H108v43.2c0 13.6 11.1 24.7 24.7 24.7h209.7c13.6 0 32.8-7.6 42.6-16.9l68.9-64.9c9.9-9.3 18-28 18-41.6V92.6c0-13.6-11.1-24.7-24.7-24.7zM108 92.5v333.1H64.8c-3.3 0-6.2-2.8-6.2-6.2V24.7c0-3.3 2.8-6.2 6.2-6.2h314.6c3.3 0 6.2 2.8 6.2 6.2v43.2h-253C119 67.9 108 79 108 92.5zm333.2 324.2l-68.9 64.9c-1.4 1.3-3.3 2.6-5.3 3.9v-56.8c0-4.2 1.7-8.1 4.5-10.9 2.8-2.8 6.7-4.5 10.9-4.5h61.7c-.9 1.3-1.9 2.5-2.9 3.4zm12.2-28.1c0 1.8-.3 4-.8 6.2h-70.1c-18.7 0-33.9 15.2-33.9 33.9v64c-2.2.4-4.3.7-6.2.7H132.6c-3.4 0-6.2-2.8-6.2-6.2V92.5c0-3.3 2.8-6.2 6.2-6.2h314.6c3.3 0 6.2 2.8 6.2 6.2v296.1z"/><path class="st0" d="M379.4 154.2H200.5c-5.1 0-9.3 4.1-9.3 9.3s4.1 9.3 9.3 9.3h178.9c5.1 0 9.3-4.1 9.3-9.3s-4.2-9.3-9.3-9.3zM379.4 277.6H200.5c-5.1 0-9.3 4.1-9.3 9.3 0 5.1 4.1 9.3 9.3 9.3h178.9c5.1 0 9.3-4.1 9.3-9.3-.1-5.2-4.2-9.3-9.3-9.3zM299.2 339.3h-98.7c-5.1 0-9.3 4.1-9.3 9.3s4.1 9.3 9.3 9.3h98.7c5.1 0 9.2-4.1 9.2-9.3s-4.1-9.3-9.2-9.3zM379.4 215.9H200.5c-5.1 0-9.3 4.1-9.3 9.3s4.1 9.3 9.3 9.3h178.9c5.1 0 9.3-4.1 9.3-9.3s-4.2-9.3-9.3-9.3z"/></svg>