<svg xmlns="http://www.w3.org/2000/svg" height="512" viewBox="0 0 60 56" width="512"><path d="M55.267 5.451a17.332 17.332 0 0 0-24.529-.713l-.759.717C23.405-1.517 12.425-1.84 5.453 4.733-1.52 11.307-1.843 22.288 4.73 29.26l1.709 1.811a5.063 5.063 0 0 0 5.295 7.029 5.039 5.039 0 0 0 5.611 5.946 5.038 5.038 0 0 0 5.61 5.945 5.08 5.08 0 0 0 8.479 4.618c5.707-5.388 5.528-5.119 6.067-6.027a5.05 5.05 0 0 0 7.238-5.178 5.054 5.054 0 0 0 5.943-5.618 5.079 5.079 0 0 0 4.564-8.531c6.332-6.668 6.34-17.125.02-23.804zM8.866 35.2a3.093 3.093 0 0 1 .126-4.366l5.2-4.91a3.088 3.088 0 0 1 4.238 4.492l-5.2 4.91a3.09 3.09 0 0 1-4.364-.126zm5.611 5.946a3.091 3.091 0 0 1 .126-4.366l5.2-4.91a3.087 3.087 0 0 1 4.237 4.491l-5.2 4.911a3.091 3.091 0 0 1-4.363-.131zm5.61 5.945a3.092 3.092 0 0 1 .127-4.365l5.2-4.91a3.087 3.087 0 0 1 4.238 4.484l-5.2 4.91a3.088 3.088 0 0 1-4.365-.124zm9.975 6.072a3.087 3.087 0 1 1-4.238-4.491l5.2-4.911a3.088 3.088 0 0 1 4.238 4.492zm23.653-18.117a3.079 3.079 0 0 1-4.363-.126L36.026 20.8a1 1 0 0 0-1.455 1.373L47.9 36.292a3.087 3.087 0 1 1-4.49 4.239L30.082 26.41a1 1 0 1 0-1.455 1.373L41.951 41.9a3.084 3.084 0 0 1-3.79 4.785 5.048 5.048 0 0 0-4.87-5.772c-1.1-.029-.7.387-.672-.713a5.085 5.085 0 0 0-4.938-5.233c-1.1-.035-.705.4-.672-.713a5.087 5.087 0 0 0-4.939-5.233c-1.107-.031-.705.409-.672-.713a5.093 5.093 0 0 0-8.577-3.847c-7.15 6.749-4.683 4.423-5.216 4.926l-1.418-1.5C.372 21.719.658 12.005 6.827 6.189 12.995.374 22.709.661 28.524 6.83l-8.19 7.734a4.151 4.151 0 0 0-1.275 2.837c-.1 4.107 6.009 6.693 9.742 3.16l7.464-7.044a1 1 0 0 1 1.414.04l16.162 17.126a3.086 3.086 0 0 1-.126 4.364zm.171-7.23L39.133 12.183a3 3 0 0 0-4.241-.122l-7.465 7.046a4.1 4.1 0 0 1-5.807-.179 2.058 2.058 0 0 1 .089-2.913l10.4-9.823C38.132.49 47.595.603 53.48 6.447c5.886 5.844 6.065 15.306.406 21.369z" data-original="#000000" class="active-path" data-old_color="#000000" fill="#F2F2F2"/></svg>